<?xml version="1.0" encoding="UTF-8"?>
<!DOCTYPE svg PUBLIC "-//W3C//DTD SVG 1.1//EN" "http://www.w3.org/Graphics/SVG/1.1/DTD/svg11.dtd">
<!-- Creator: CorelDRAW X6 -->
<svg xmlns="http://www.w3.org/2000/svg" xml:space="preserve" width="1300px" height="1300px" version="1.1" style="shape-rendering:geometricPrecision; text-rendering:geometricPrecision; image-rendering:optimizeQuality; fill-rule:evenodd; clip-rule:evenodd"
viewBox="0 0 1300 1300"
 xmlns:xlink="http://www.w3.org/1999/xlink">
 <defs>
  <style type="text/css">
   <![CDATA[
    .fil1 {fill:#FEFEFE}
    .fil0 {fill:#537599}
   ]]>
  </style>
 </defs>
 <g id="Слой_x0020_1" >
  <metadata id="CorelCorpID_0Corel-Layer"/>
  <path class="fil0" d="M567 416c40,0 68,0 112,0 10,0 22,2 30,7 6,4 13,9 14,27 0,18 0,35 0,53 0,39 0,77 0,119 1,13 9,18 17,18 8,0 17,-5 23,-11 11,-11 23,-27 35,-46 25,-40 50,-92 68,-130 9,-21 25,-19 42,-19 14,0 27,0 38,0 33,0 57,1 97,1 10,0 19,8 21,14 2,5 4,20 -9,42 -7,12 -15,24 -22,35 -23,36 -46,69 -70,103 -10,14 -20,28 -31,43 -3,4 -6,9 -5,14 0,4 2,9 5,12 40,42 82,85 123,131 12,14 5,35 1,41 -3,4 -14,16 -22,16 -28,0 -28,0 -145,0 -17,0 -24,-5 -33,-15 -41,-43 -36,-37 -80,-85 -6,-6 -17,-14 -28,-9 -9,4 -26,10 -26,27l0 60c0,11 -17,19 -27,19l-80 0c-37,0 -70,-9 -88,-18 -77,-38 -124,-90 -174,-177 -43,-74 -80,-148 -117,-225 -3,-7 -6,-22 12,-26 3,-1 7,-1 12,-1 32,0 63,-1 112,-1 14,0 24,3 30,7 6,4 9,10 12,16 57,106 61,120 96,166 3,4 6,8 9,12 4,5 10,6 14,6 5,0 10,-1 15,-4 5,-4 8,-8 9,-13 1,-4 2,-8 2,-13l0 -116c0,-13 -9,-33 -19,-39 -10,-6 -27,-12 -27,-19 1,-8 19,-22 53,-22zm83 -416c-133,0 -257,40 -360,109 -56,38 -106,84 -149,136 -89,111 -142,252 -142,405 0,359 291,650 650,650 359,0 650,-291 650,-650 0,-201 -91,-381 -235,-500 -30,-25 -61,-47 -95,-66 -95,-54 -204,-84 -321,-84z"/>
  <path class="fil1" d="M511 623c-35,-47 -40,-60 -96,-166 -3,-6 -6,-11 -12,-16 -6,-4 -15,-7 -30,-7 -49,0 -80,1 -112,1 -5,0 -8,0 -12,1 -18,4 -15,19 -12,26 37,77 74,150 117,225 50,87 96,140 174,177 18,9 50,18 88,18l80 0c10,0 27,-8 27,-19l0 -60c0,-17 17,-23 26,-27 11,-5 22,3 28,9 45,48 39,42 80,85 9,10 16,15 33,15 117,0 117,0 145,0 8,0 19,-12 22,-16 3,-6 11,-27 -1,-41 -41,-46 -83,-89 -123,-131 -3,-3 -5,-8 -5,-12 0,-5 3,-10 5,-14 11,-15 21,-29 31,-43 24,-34 47,-67 70,-103 7,-11 15,-23 22,-35 13,-21 11,-37 9,-42 -3,-6 -11,-14 -21,-14 -41,0 -64,-1 -97,-1 -11,0 -23,0 -38,0 -17,0 -32,-1 -42,19 -17,38 -42,90 -68,130 -12,19 -24,35 -35,46 -7,7 -15,11 -23,11 -8,0 -16,-5 -17,-18 -1,-42 0,-80 0,-119 0,-17 0,-34 0,-53 0,-18 -8,-23 -14,-27 -8,-5 -20,-7 -30,-7 -44,0 -73,0 -112,0 -33,0 -52,13 -53,22 -1,7 16,13 27,19 10,6 19,26 19,39l0 116c0,5 -1,9 -2,13 -2,5 -5,9 -9,13 -4,3 -9,4 -15,4 -4,0 -10,-1 -14,-6l-9 -12z"/>
 </g>
</svg>
